<svg width="72" height="72" viewBox="0 0 72 72" fill="none" xmlns="http://www.w3.org/2000/svg">
<g filter="url(#filter0_d_294_283)">
<mask id="mask0_294_283" style="mask-type:alpha" maskUnits="userSpaceOnUse" x="4" y="2" width="64" height="64">
<path d="M67.9956 19.6528C67.9918 19.0127 67.9845 18.3728 67.9671 17.733C67.9295 16.3386 67.8472 14.9322 67.5992 13.5534C67.3477 12.1546 66.937 10.8528 66.2898 9.58188C65.6535 8.33271 64.8224 7.18965 63.8307 6.19866C62.8393 5.20768 61.6959 4.37708 60.4463 3.7412C59.174 3.09382 57.8708 2.68326 56.4705 2.43184C55.0915 2.18423 53.6848 2.10214 52.2904 2.06447C51.6501 2.04715 51.0099 2.03984 50.3695 2.03588C49.6093 2.03122 48.8491 2.03161 48.0888 2.03161L39.2619 2H32.66L23.9892 2.03161C23.2275 2.03161 22.4658 2.03122 21.7041 2.03588C21.0624 2.03984 20.421 2.04715 19.7795 2.06447C18.3819 2.10214 16.9719 2.18431 15.5897 2.43223C14.1875 2.68357 12.8823 3.09398 11.6084 3.74089C10.3561 4.37685 9.21029 5.20752 8.21675 6.19866C7.22335 7.18957 6.39066 8.3324 5.75323 9.58133C5.10422 10.8529 4.69273 12.1555 4.44062 13.555C4.19239 14.9333 4.11014 16.3392 4.07231 17.733C4.05507 18.3728 4.04761 19.0128 4.04373 19.6528C4.03907 20.4127 4 21.3566 4 22.1164V30.6671V37.3397L4.03946 46.072C4.03946 46.8328 4.03915 47.5937 4.04373 48.3546C4.04761 48.9955 4.05507 49.6363 4.07239 50.277C4.11014 51.6731 4.19254 53.0815 4.44101 54.4623C4.69304 55.8629 5.10446 57.1666 5.75292 58.4391C6.39043 59.69 7.22328 60.8346 8.21675 61.827C9.21021 62.8194 10.3558 63.651 11.6078 64.2879C12.8825 64.9361 14.1883 65.3472 15.5913 65.5989C16.973 65.8469 18.3824 65.9292 19.7795 65.9668C20.421 65.9842 21.0625 65.9915 21.7042 65.9954C22.4659 66 23.2275 66 23.9892 66H32.7384H39.3566H48.0888C48.8491 66 49.6093 66 50.3695 65.9954C51.0099 65.9915 51.6501 65.9842 52.2904 65.9668C53.6853 65.9291 55.0925 65.8468 56.4722 65.5986C57.8716 65.3469 59.1742 64.9359 60.4457 64.2881C61.6956 63.6514 62.8392 62.8195 63.8307 61.827C64.8222 60.8347 65.6533 59.6904 66.2896 58.4396C66.9372 57.1665 67.3479 55.8622 67.5995 54.4606C67.8473 53.0804 67.9295 51.6726 67.9671 50.277C67.9845 49.6362 67.9918 48.9954 67.9956 48.3546C68 47.5937 68 46.8328 68 46.072C68 46.072 68 37.4939 68 37.3397V30.6601C68 30.5462 68 21.9322 68 21.9322C68 21.1724 68 20.4126 67.9956 19.6528Z" fill="#8E8E93"/>
</mask>
<g mask="url(#mask0_294_283)">
<path d="M67.9956 19.6528C67.9918 19.0127 67.9845 18.3728 67.9671 17.733C67.9295 16.3386 67.8472 14.9322 67.5992 13.5534C67.3477 12.1546 66.937 10.8528 66.2898 9.58188C65.6535 8.33271 64.8224 7.18965 63.8307 6.19866C62.8393 5.20768 61.6959 4.37708 60.4463 3.7412C59.174 3.09382 57.8708 2.68326 56.4705 2.43184C55.0915 2.18423 53.6848 2.10214 52.2904 2.06447C51.6501 2.04715 51.0099 2.03984 50.3695 2.03588C49.6093 2.03122 48.8491 2.03161 48.0888 2.03161L39.2619 2H32.66L23.9892 2.03161C23.2275 2.03161 22.4658 2.03122 21.7041 2.03588C21.0624 2.03984 20.421 2.04715 19.7795 2.06447C18.3819 2.10214 16.9719 2.18431 15.5897 2.43223C14.1875 2.68357 12.8823 3.09398 11.6084 3.74089C10.3561 4.37685 9.21029 5.20752 8.21675 6.19866C7.22335 7.18957 6.39066 8.3324 5.75323 9.58133C5.10422 10.8529 4.69273 12.1555 4.44062 13.555C4.19239 14.9333 4.11014 16.3392 4.07231 17.733C4.05507 18.3728 4.04761 19.0128 4.04373 19.6528C4.03907 20.4127 4 21.3566 4 22.1164V30.6671V37.3397L4.03946 46.072C4.03946 46.8328 4.03915 47.5937 4.04373 48.3546C4.04761 48.9955 4.05507 49.6363 4.07239 50.277C4.11014 51.6731 4.19254 53.0815 4.44101 54.4623C4.69304 55.8629 5.10446 57.1666 5.75292 58.4391C6.39043 59.69 7.22328 60.8346 8.21675 61.827C9.21021 62.8194 10.3558 63.651 11.6078 64.2879C12.8825 64.9361 14.1883 65.3472 15.5913 65.5989C16.973 65.8469 18.3824 65.9292 19.7795 65.9668C20.421 65.9842 21.0625 65.9915 21.7042 65.9954C22.4659 66 23.2275 66 23.9892 66H32.7384H39.3566H48.0888C48.8491 66 49.6093 66 50.3695 65.9954C51.0099 65.9915 51.6501 65.9842 52.2904 65.9668C53.6853 65.9291 55.0925 65.8468 56.4722 65.5986C57.8716 65.3469 59.1742 64.9359 60.4457 64.2881C61.6956 63.6514 62.8392 62.8195 63.8307 61.827C64.8222 60.8347 65.6533 59.6904 66.2896 58.4396C66.9372 57.1665 67.3479 55.8622 67.5995 54.4606C67.8473 53.0804 67.9295 51.6726 67.9671 50.277C67.9845 49.6362 67.9918 48.9954 67.9956 48.3546C68 47.5937 68 46.8328 68 46.072C68 46.072 68 37.4939 68 37.3397V30.6601C68 30.5462 68 21.9322 68 21.9322C68 21.1724 68 20.4126 67.9956 19.6528Z" fill="url(#paint0_linear_294_283)"/>
<g style="mix-blend-mode:hard-light" filter="url(#filter1_ddiii_294_283)">
<path d="M75.3846 73.3846V-5.38461H47.9795C46.6929 -5.38461 46.0496 -5.38461 45.5133 -5.28633C43.0613 -4.83697 41.1425 -2.91821 40.6932 -0.466143C40.5949 0.0701566 40.5949 0.713439 40.5949 2C40.5949 2 32.0985 9.481 30.6656 29.7333C30.6496 29.9589 30.6345 30.1804 30.6203 30.3991C30.5808 31.0087 30.561 31.3135 30.5972 31.654C30.7784 33.3569 32.2074 34.8816 33.895 35.1726C34.2324 35.2308 34.5872 35.2308 35.2968 35.2308C36.3795 35.2308 36.9208 35.2308 37.2591 35.2893C39.1627 35.6185 40.36 36.9017 40.5567 38.8235C40.5917 39.1651 40.5488 39.7833 40.463 41.0199C40.0535 46.9225 40.1058 56.5329 43.2615 66C43.2615 67.2866 43.2615 67.9298 43.3598 68.4661C43.8092 70.9182 45.7279 72.837 48.18 73.2863C48.7163 73.3846 49.3596 73.3846 50.6462 73.3846H75.3846Z" fill="url(#paint1_linear_294_283)"/>
</g>
<g opacity="0.75" filter="url(#filter2_dd_294_283)">
<path d="M53.819 42.8066C54.7299 41.7754 56.3036 41.6736 57.3395 42.5811C58.3781 43.4908 58.4826 45.0708 57.5729 46.1094L55.6921 44.4619C57.5725 46.1091 57.5718 46.1104 57.571 46.1113L57.5651 46.1172C57.5623 46.1204 57.5589 46.1249 57.5554 46.1289C57.548 46.1371 57.5386 46.1475 57.528 46.1592C57.5063 46.1832 57.4772 46.2152 57.4421 46.2529C57.3713 46.3288 57.2731 46.4321 57.1481 46.5576C56.8978 46.809 56.5376 47.1528 56.07 47.5576C55.135 48.3669 53.7606 49.4263 51.9557 50.4795C48.3377 52.5905 42.9836 54.6787 35.9997 54.6787C29.0157 54.6786 23.6617 52.5906 20.0436 50.4795C18.2385 49.4262 16.8644 48.367 15.9294 47.5576C15.4615 47.1526 15.1016 46.809 14.8513 46.5576C14.726 46.4319 14.6281 46.3289 14.5573 46.2529C14.5219 46.215 14.4931 46.1833 14.4714 46.1592C14.4606 46.1473 14.4514 46.1372 14.444 46.1289C14.4403 46.1247 14.4372 46.1205 14.4343 46.1172L14.4284 46.1113C14.4276 46.1104 14.4272 46.1088 16.3073 44.4619L14.4265 46.1094C13.5169 45.0709 13.6217 43.4909 14.6599 42.5811C15.6973 41.6724 17.274 41.7762 18.1843 42.8115H18.1852C18.1908 42.8177 18.201 42.8291 18.2155 42.8447C18.2501 42.8818 18.3098 42.9445 18.3942 43.0293C18.5641 43.1999 18.8341 43.459 19.2018 43.7773C19.9383 44.4149 21.0631 45.2853 22.5641 46.1611C25.559 47.9086 30.052 49.6786 35.9997 49.6787C41.9473 49.6787 46.4403 47.9085 49.4352 46.1611C50.9361 45.2854 52.061 44.4148 52.7975 43.7773C53.1649 43.4593 53.4343 43.1999 53.6042 43.0293C53.6886 42.9445 53.7492 42.8819 53.7839 42.8447L53.8141 42.8115L53.8161 42.8086C53.8169 42.8077 53.8184 42.807 53.819 42.8066ZM18.1833 42.8086C18.1839 42.8093 18.1844 42.8106 18.1852 42.8115L18.1804 42.8066C18.1808 42.8072 18.1822 42.8074 18.1833 42.8086ZM20.3073 18C21.1569 18 21.8462 18.6886 21.8464 19.5381V26.3076C21.8464 27.1573 21.157 27.8457 20.3073 27.8457C19.4578 27.8455 18.7692 27.1572 18.7692 26.3076V19.5381C18.7694 18.6887 19.458 18.0002 20.3073 18ZM51.6921 18C52.5416 18 53.2309 18.6886 53.2311 19.5381V26.3076C53.2311 27.1573 52.5417 27.8457 51.6921 27.8457C50.8425 27.8456 50.154 27.1572 50.154 26.3076V19.5381C50.1542 18.6887 50.8427 18.0001 51.6921 18Z" fill="#000033"/>
</g>
<path opacity="0.1" d="M4.53906 46.0693L4.5 37.3379V22.1162C4.5 21.7434 4.50916 21.3232 4.51953 20.8965C4.52983 20.4727 4.54158 20.0416 4.54395 19.6562C4.54782 19.0179 4.55516 18.381 4.57227 17.7461C4.60987 16.3607 4.69112 14.9845 4.93262 13.6436C5.17717 12.286 5.57432 11.031 6.19824 9.80859C6.81171 8.60662 7.61403 7.50663 8.57031 6.55273C9.5267 5.5987 10.6296 4.79865 11.835 4.18652C13.0599 3.56454 14.3175 3.16865 15.6777 2.9248C17.0229 2.68354 18.4035 2.6019 19.793 2.56445C20.4294 2.54727 21.0669 2.54008 21.707 2.53613C22.4669 2.53148 23.227 2.53125 23.9893 2.53125H23.9912L32.6621 2.5H39.2598L48.0869 2.53125H48.0889C48.8495 2.53125 49.6079 2.53149 50.3662 2.53613C51.0049 2.54008 51.6413 2.54728 52.2764 2.56445H52.2773C53.6632 2.6019 55.0402 2.68296 56.3818 2.92383C57.7403 3.16773 58.9965 3.56407 60.2197 4.18652C61.4224 4.79854 62.5232 5.59882 63.4775 6.55273C64.432 7.50657 65.2324 8.60648 65.8447 9.80859C66.467 11.0305 66.8635 12.2849 67.1074 13.6416C67.3487 14.9832 67.4294 16.3601 67.4668 17.7461V17.7471C67.484 18.3815 67.4923 19.0172 67.4961 19.6553C67.5004 20.4134 67.5 21.1726 67.5 21.9326V46.0723C67.5 46.8332 67.5004 47.5925 67.4961 48.3516C67.4923 48.9908 67.485 49.6279 67.4678 50.2637C67.4303 51.6509 67.3485 53.0291 67.1074 54.3721C66.8633 55.7318 66.4664 56.9887 65.8438 58.2129C65.2313 59.4167 64.431 60.5185 63.4766 61.4736C62.6414 62.3096 61.6946 63.0277 60.665 63.6045L60.2188 63.8428C58.9963 64.4656 57.7413 64.8623 56.3838 65.1064C55.0413 65.3479 53.6631 65.4293 52.2764 65.4668C51.6413 65.484 51.0048 65.4912 50.3662 65.4951C49.6078 65.4997 48.8492 65.5 48.0889 65.5H23.9893C23.2273 65.5 22.467 65.4997 21.707 65.4951C21.067 65.4912 20.4294 65.484 19.793 65.4668C18.4041 65.4293 17.0242 65.3478 15.6797 65.1064C14.3185 64.8622 13.0597 64.4651 11.834 63.8418C10.6292 63.2289 9.52649 62.4287 8.57031 61.4736C7.61391 60.5183 6.81183 59.4159 6.19824 58.2119C5.57483 56.9885 5.17711 55.7326 4.93262 54.374C4.69086 53.0306 4.60979 51.6515 4.57227 50.2637C4.55508 49.6279 4.54782 48.9908 4.54395 48.3516C4.53937 47.5926 4.53906 46.8335 4.53906 46.0723V46.0693Z" stroke="black"/>
</g>
</g>
<defs>
<filter id="filter0_d_294_283" x="0" y="0" width="72" height="72" filterUnits="userSpaceOnUse" color-interpolation-filters="sRGB">
<feFlood flood-opacity="0" result="BackgroundImageFix"/>
<feColorMatrix in="SourceAlpha" type="matrix" values="0 0 0 0 0 0 0 0 0 0 0 0 0 0 0 0 0 0 127 0" result="hardAlpha"/>
<feOffset dy="2"/>
<feGaussianBlur stdDeviation="2"/>
<feColorMatrix type="matrix" values="0 0 0 0 0 0 0 0 0 0 0 0 0 0 0 0 0 0 0.15 0"/>
<feBlend mode="normal" in2="BackgroundImageFix" result="effect1_dropShadow_294_283"/>
<feBlend mode="normal" in="SourceGraphic" in2="effect1_dropShadow_294_283" result="shape"/>
</filter>
<filter id="filter1_ddiii_294_283" x="18.5782" y="-17.3846" width="68.8065" height="102.769" filterUnits="userSpaceOnUse" color-interpolation-filters="sRGB">
<feFlood flood-opacity="0" result="BackgroundImageFix"/>
<feColorMatrix in="SourceAlpha" type="matrix" values="0 0 0 0 0 0 0 0 0 0 0 0 0 0 0 0 0 0 127 0" result="hardAlpha"/>
<feOffset dy="2"/>
<feGaussianBlur stdDeviation="2"/>
<feColorMatrix type="matrix" values="0 0 0 0 0 0 0 0 0 0 0 0 0 0 0 0 0 0 0.2 0"/>
<feBlend mode="normal" in2="BackgroundImageFix" result="effect1_dropShadow_294_283"/>
<feColorMatrix in="SourceAlpha" type="matrix" values="0 0 0 0 0 0 0 0 0 0 0 0 0 0 0 0 0 0 127 0" result="hardAlpha"/>
<feOffset/>
<feGaussianBlur stdDeviation="6"/>
<feColorMatrix type="matrix" values="0 0 0 0 0.117647 0 0 0 0 0.243137 0 0 0 0 0.494118 0 0 0 0.2 0"/>
<feBlend mode="normal" in2="effect1_dropShadow_294_283" result="effect2_dropShadow_294_283"/>
<feBlend mode="normal" in="SourceGraphic" in2="effect2_dropShadow_294_283" result="shape"/>
<feColorMatrix in="SourceAlpha" type="matrix" values="0 0 0 0 0 0 0 0 0 0 0 0 0 0 0 0 0 0 127 0" result="hardAlpha"/>
<feOffset/>
<feGaussianBlur stdDeviation="4"/>
<feComposite in2="hardAlpha" operator="arithmetic" k2="-1" k3="1"/>
<feColorMatrix type="matrix" values="0 0 0 0 1 0 0 0 0 1 0 0 0 0 1 0 0 0 0.25 0"/>
<feBlend mode="normal" in2="shape" result="effect3_innerShadow_294_283"/>
<feColorMatrix in="SourceAlpha" type="matrix" values="0 0 0 0 0 0 0 0 0 0 0 0 0 0 0 0 0 0 127 0" result="hardAlpha"/>
<feOffset dy="2"/>
<feGaussianBlur stdDeviation="1"/>
<feComposite in2="hardAlpha" operator="arithmetic" k2="-1" k3="1"/>
<feColorMatrix type="matrix" values="0 0 0 0 1 0 0 0 0 1 0 0 0 0 1 0 0 0 0.25 0"/>
<feBlend mode="normal" in2="effect3_innerShadow_294_283" result="effect4_innerShadow_294_283"/>
<feColorMatrix in="SourceAlpha" type="matrix" values="0 0 0 0 0 0 0 0 0 0 0 0 0 0 0 0 0 0 127 0" result="hardAlpha"/>
<feOffset dy="-1"/>
<feGaussianBlur stdDeviation="1"/>
<feComposite in2="hardAlpha" operator="arithmetic" k2="-1" k3="1"/>
<feColorMatrix type="matrix" values="0 0 0 0 0 0 0 0 0 0 0 0 0 0 0 0 0 0 0.25 0"/>
<feBlend mode="normal" in2="effect4_innerShadow_294_283" result="effect5_innerShadow_294_283"/>
</filter>
<filter id="filter2_dd_294_283" x="9.80725" y="16" width="52.385" height="44.6787" filterUnits="userSpaceOnUse" color-interpolation-filters="sRGB">
<feFlood flood-opacity="0" result="BackgroundImageFix"/>
<feColorMatrix in="SourceAlpha" type="matrix" values="0 0 0 0 0 0 0 0 0 0 0 0 0 0 0 0 0 0 127 0" result="hardAlpha"/>
<feOffset dy="2"/>
<feGaussianBlur stdDeviation="2"/>
<feColorMatrix type="matrix" values="0 0 0 0 0 0 0 0 0 0 0 0 0 0 0 0 0 0 0.15 0"/>
<feBlend mode="normal" in2="BackgroundImageFix" result="effect1_dropShadow_294_283"/>
<feColorMatrix in="SourceAlpha" type="matrix" values="0 0 0 0 0 0 0 0 0 0 0 0 0 0 0 0 0 0 127 0" result="hardAlpha"/>
<feOffset dy="1"/>
<feGaussianBlur stdDeviation="0.5"/>
<feColorMatrix type="matrix" values="0 0 0 0 0 0 0 0 0 0 0 0 0 0 0 0 0 0 0.15 0"/>
<feBlend mode="normal" in2="effect1_dropShadow_294_283" result="effect2_dropShadow_294_283"/>
<feBlend mode="normal" in="SourceGraphic" in2="effect2_dropShadow_294_283" result="shape"/>
</filter>
<linearGradient id="paint0_linear_294_283" x1="36" y1="2" x2="36" y2="66" gradientUnits="userSpaceOnUse">
<stop stop-color="#3ED4F9"/>
<stop offset="1" stop-color="#2E6DEA"/>
</linearGradient>
<linearGradient id="paint1_linear_294_283" x1="49.6616" y1="-0.13333" x2="49.6616" y2="68.1334" gradientUnits="userSpaceOnUse">
<stop stop-color="white"/>
<stop offset="1" stop-color="white" stop-opacity="0.8"/>
</linearGradient>
</defs>
</svg>
