<svg width="64" height="64" viewBox="0 0 64 64" fill="none" xmlns="http://www.w3.org/2000/svg">
<g transform="translate(-4, -2)">
<g filter="url(#filter0_d_294_291)">
<mask id="mask0_294_291" style="mask-type:alpha" maskUnits="userSpaceOnUse" x="4" y="2" width="64" height="64">
<path d="M67.9956 19.6528C67.9918 19.0127 67.9845 18.3728 67.9671 17.733C67.9295 16.3386 67.8472 14.9322 67.5992 13.5534C67.3477 12.1546 66.937 10.8528 66.2898 9.58188C65.6535 8.33271 64.8224 7.18965 63.8307 6.19866C62.8393 5.20768 61.6959 4.37708 60.4463 3.7412C59.174 3.09382 57.8708 2.68326 56.4705 2.43184C55.0915 2.18423 53.6848 2.10214 52.2904 2.06447C51.6501 2.04715 51.0099 2.03984 50.3695 2.03588C49.6093 2.03122 48.8491 2.03161 48.0888 2.03161L39.2619 2H32.66L23.9892 2.03161C23.2275 2.03161 22.4658 2.03122 21.7041 2.03588C21.0624 2.03984 20.421 2.04715 19.7795 2.06447C18.3819 2.10214 16.9719 2.18431 15.5897 2.43223C14.1875 2.68357 12.8823 3.09398 11.6084 3.74089C10.3561 4.37685 9.21029 5.20752 8.21675 6.19866C7.22335 7.18957 6.39066 8.3324 5.75323 9.58133C5.10422 10.8529 4.69273 12.1555 4.44062 13.555C4.19239 14.9333 4.11014 16.3392 4.07231 17.733C4.05507 18.3728 4.04761 19.0128 4.04373 19.6528C4.03907 20.4127 4 21.3566 4 22.1164V30.6671V37.3397L4.03946 46.072C4.03946 46.8328 4.03915 47.5937 4.04373 48.3546C4.04761 48.9955 4.05507 49.6363 4.07239 50.277C4.11014 51.6731 4.19254 53.0815 4.44101 54.4623C4.69304 55.8629 5.10446 57.1666 5.75292 58.4391C6.39043 59.69 7.22328 60.8346 8.21675 61.827C9.21021 62.8194 10.3558 63.651 11.6078 64.2879C12.8825 64.9361 14.1883 65.3472 15.5913 65.5989C16.973 65.8469 18.3824 65.9292 19.7795 65.9668C20.421 65.9842 21.0625 65.9915 21.7042 65.9954C22.4659 66 23.2275 66 23.9892 66H32.7384H39.3566H48.0888C48.8491 66 49.6093 66 50.3695 65.9954C51.0099 65.9915 51.6501 65.9842 52.2904 65.9668C53.6853 65.9291 55.0925 65.8468 56.4722 65.5986C57.8716 65.3469 59.1742 64.9359 60.4457 64.2881C61.6956 63.6514 62.8392 62.8195 63.8307 61.827C64.8222 60.8347 65.6533 59.6904 66.2896 58.4396C66.9372 57.1665 67.3479 55.8622 67.5995 54.4606C67.8473 53.0804 67.9295 51.6726 67.9671 50.277C67.9845 49.6362 67.9918 48.9954 67.9956 48.3546C68 47.5937 68 46.8328 68 46.072C68 46.072 68 37.4939 68 37.3397V30.6601C68 30.5462 68 21.9322 68 21.9322C68 21.1724 68 20.4126 67.9956 19.6528Z" fill="#8E8E93"/>
</mask>
<g mask="url(#mask0_294_291)">
<path d="M67.9956 19.6528C67.9918 19.0127 67.9845 18.3728 67.9671 17.733C67.9295 16.3386 67.8472 14.9322 67.5992 13.5534C67.3477 12.1546 66.937 10.8528 66.2898 9.58188C65.6535 8.33271 64.8224 7.18965 63.8307 6.19866C62.8393 5.20768 61.6959 4.37708 60.4463 3.7412C59.174 3.09382 57.8708 2.68326 56.4705 2.43184C55.0915 2.18423 53.6848 2.10214 52.2904 2.06447C51.6501 2.04715 51.0099 2.03984 50.3695 2.03588C49.6093 2.03122 48.8491 2.03161 48.0888 2.03161L39.2619 2H32.66L23.9892 2.03161C23.2275 2.03161 22.4658 2.03122 21.7041 2.03588C21.0624 2.03984 20.421 2.04715 19.7795 2.06447C18.3819 2.10214 16.9719 2.18431 15.5897 2.43223C14.1875 2.68357 12.8823 3.09398 11.6084 3.74089C10.3561 4.37685 9.21029 5.20752 8.21675 6.19866C7.22335 7.18957 6.39066 8.3324 5.75323 9.58133C5.10422 10.8529 4.69273 12.1555 4.44062 13.555C4.19239 14.9333 4.11014 16.3392 4.07231 17.733C4.05507 18.3728 4.04761 19.0128 4.04373 19.6528C4.03907 20.4127 4 21.3566 4 22.1164V30.6671V37.3397L4.03946 46.072C4.03946 46.8328 4.03915 47.5937 4.04373 48.3546C4.04761 48.9955 4.05507 49.6363 4.07239 50.277C4.11014 51.6731 4.19254 53.0815 4.44101 54.4623C4.69304 55.8629 5.10446 57.1666 5.75292 58.4391C6.39043 59.69 7.22328 60.8346 8.21675 61.827C9.21021 62.8194 10.3558 63.651 11.6078 64.2879C12.8825 64.9361 14.1883 65.3472 15.5913 65.5989C16.973 65.8469 18.3824 65.9292 19.7795 65.9668C20.421 65.9842 21.0625 65.9915 21.7042 65.9954C22.4659 66 23.2275 66 23.9892 66H32.7384H39.3566H48.0888C48.8491 66 49.6093 66 50.3695 65.9954C51.0099 65.9915 51.6501 65.9842 52.2904 65.9668C53.6853 65.9291 55.0925 65.8468 56.4722 65.5986C57.8716 65.3469 59.1742 64.9359 60.4457 64.2881C61.6956 63.6514 62.8392 62.8195 63.8307 61.827C64.8222 60.8347 65.6533 59.6904 66.2896 58.4396C66.9372 57.1665 67.3479 55.8622 67.5995 54.4606C67.8473 53.0804 67.9295 51.6726 67.9671 50.277C67.9845 49.6362 67.9918 48.9954 67.9956 48.3546C68 47.5937 68 46.8328 68 46.072C68 46.072 68 37.4939 68 37.3397V30.6601C68 30.5462 68 21.9322 68 21.9322C68 21.1724 68 20.4126 67.9956 19.6528Z" fill="url(#paint0_linear_294_291)"/>
<g style="mix-blend-mode:hard-light" filter="url(#filter1_d_294_291)">
<path d="M21.8871 24.5734V23.653C21.8871 22.9541 22.0348 22.3121 22.3302 21.7268C22.6314 21.1359 23.066 20.6643 23.6342 20.3121C24.2081 19.9541 24.9069 19.7751 25.7308 19.7751C26.566 19.7751 27.2677 19.9513 27.8359 20.3035C28.4098 20.6558 28.8416 21.1274 29.1314 21.7183C29.4268 22.3035 29.5746 22.9484 29.5746 23.653V24.5734C29.5746 25.2723 29.4268 25.9172 29.1314 26.5081C28.8359 27.0933 28.4013 27.5621 27.8274 27.9143C27.2535 28.2723 26.5547 28.4513 25.7308 28.4513C24.8956 28.4513 24.1939 28.2723 23.6257 27.9143C23.0575 27.5621 22.6257 27.0933 22.3302 26.5081C22.0348 25.9172 21.8871 25.2723 21.8871 24.5734ZM24.3672 23.653V24.5734C24.3672 24.9768 24.4638 25.3575 24.6569 25.7155C24.8558 26.0734 25.2138 26.2524 25.7308 26.2524C26.2479 26.2524 26.6001 26.0763 26.7876 25.724C26.9808 25.3717 27.0774 24.9882 27.0774 24.5734V23.653C27.0774 23.2382 26.9865 22.8518 26.8047 22.4939C26.6229 22.1359 26.2649 21.957 25.7308 21.957C25.2194 21.957 24.8643 22.1359 24.6655 22.4939C24.4666 22.8518 24.3672 23.2382 24.3672 23.653ZM12.9297 14.5848V13.6643C12.9297 12.9598 13.0802 12.3149 13.3814 11.7297C13.6825 11.1388 14.1172 10.6672 14.6854 10.3149C15.2592 9.96264 15.9524 9.7865 16.7649 9.7865C17.6058 9.7865 18.3104 9.96264 18.8785 10.3149C19.4467 10.6672 19.8785 11.1388 20.174 11.7297C20.4694 12.3149 20.6172 12.9598 20.6172 13.6643V14.5848C20.6172 15.2893 20.4666 15.9342 20.1655 16.5195C19.87 17.1047 19.4354 17.5734 18.8615 17.9257C18.2933 18.2723 17.5944 18.4456 16.7649 18.4456C15.9354 18.4456 15.2336 18.2695 14.6598 17.9172C14.0916 17.5592 13.6598 17.0905 13.3643 16.5109C13.0746 15.9257 12.9297 15.2837 12.9297 14.5848ZM15.4268 13.6643V14.5848C15.4268 14.9996 15.5234 15.3831 15.7166 15.7354C15.9155 16.0876 16.2649 16.2638 16.7649 16.2638C17.2876 16.2638 17.6427 16.0876 17.8302 15.7354C18.0234 15.3831 18.12 14.9996 18.12 14.5848V13.6643C18.12 13.2496 18.0291 12.8632 17.8473 12.5053C17.6655 12.1473 17.3047 11.9683 16.7649 11.9683C16.2592 11.9683 15.9098 12.1501 15.7166 12.5138C15.5234 12.8774 15.4268 13.2609 15.4268 13.6643ZM14.0547 27.8462L26.0547 10.3916H28.2876L16.2876 27.8462H14.0547Z" fill="white"/>
</g>
<g style="mix-blend-mode:soft-light" opacity="0.15">
<path d="M7.03906 46.0586L7 37.3262V22.1162C7 21.7785 7.00906 21.3878 7.01953 20.957C7.0296 20.5425 7.04141 20.0844 7.04395 19.6709C7.04777 19.0412 7.05485 18.4246 7.07129 17.8145C7.10778 16.47 7.18556 15.2418 7.39355 14.0869C7.60033 12.9391 7.92614 11.9224 8.4248 10.9453H8.42578C8.91942 9.97814 9.56424 9.09107 10.335 8.32227H10.3359C11.0103 7.64957 11.7752 7.07166 12.6064 6.60742L12.9668 6.41602C13.8247 5.98035 14.7132 5.6763 15.6934 5.46875L16.1191 5.38477C17.2789 5.17675 18.512 5.09982 19.8604 5.06348C20.4719 5.04696 21.0901 5.04004 21.7227 5.03613C22.4731 5.03154 23.2245 5.03125 23.9893 5.03125H24L32.6709 5H39.251L48.0781 5.03125H48.0889C48.852 5.03125 49.6017 5.03057 50.3506 5.03516V5.03613C50.9817 5.04004 51.5988 5.04697 52.209 5.06348C53.5541 5.09981 54.7841 5.17714 55.9404 5.38477C57.0896 5.59109 58.1076 5.91719 59.0859 6.41504C59.933 6.84612 60.7179 7.39317 61.416 8.03809L61.71 8.32031C62.3828 8.99267 62.9607 9.75562 63.4248 10.584L63.6162 10.9434C64.1139 11.9206 64.4402 12.9368 64.6465 14.084C64.8543 15.2397 64.9315 16.4689 64.9678 17.8135V17.8145C64.9761 18.1194 64.982 18.4262 64.9863 18.7354L64.9961 19.6709C65.0004 20.4204 65 21.1717 65 21.9326V46.0723L64.9961 48.3369C64.9942 48.6522 64.9907 48.964 64.9863 49.2734L64.9678 50.1963C64.9314 51.5424 64.8543 52.7732 64.6465 53.9307C64.4399 55.0812 64.1133 56.0999 63.6152 57.0791C63.1221 58.0484 62.478 58.9364 61.709 59.7061L61.708 59.707C60.9389 60.4768 60.0521 61.122 59.084 61.6152C58.1065 62.1133 57.0894 62.439 55.9414 62.6455C54.7848 62.8536 53.5544 62.9314 52.209 62.9678C51.5987 62.9843 50.9821 62.9913 50.3516 62.9951C49.6019 62.9996 48.8506 63 48.0889 63H23.9893C23.2262 63 22.4737 62.9996 21.7227 62.9951C21.0907 62.9913 20.4721 62.9843 19.8604 62.9678C18.6812 62.936 17.5903 62.8725 16.5596 62.7178L16.1211 62.6465C14.9691 62.4398 13.9478 62.1121 12.9668 61.6133C11.9964 61.1196 11.1076 60.474 10.3369 59.7041C9.56599 58.934 8.91968 58.0463 8.42578 57.0771C7.92707 56.0985 7.60036 55.0799 7.39355 53.9307C7.1853 52.7733 7.1077 51.5426 7.07129 50.1963C7.06303 49.8907 7.0571 49.5831 7.05273 49.2734L7.04395 48.3359C7.03943 47.5863 7.03906 46.8356 7.03906 46.0723V46.0586Z" stroke="black" stroke-width="6"/>
</g>
<g filter="url(#filter2_dii_294_291)">
<path d="M67.9956 19.6528C67.9918 19.0127 67.9845 18.3728 67.9671 17.733C67.9295 16.3386 67.8472 14.9322 67.5992 13.5534C67.3477 12.1546 66.937 10.8528 66.2898 9.58188C65.6535 8.33271 64.8224 7.18965 63.8307 6.19866C62.8393 5.20768 61.6959 4.37708 60.4463 3.7412C59.174 3.09382 57.8708 2.68326 56.4705 2.43184C55.0915 2.18423 53.6848 2.10214 52.2904 2.06447C51.6501 2.04715 51.0099 2.03984 50.3695 2.03588C49.6093 2.03122 48.8491 2.03161 48.0888 2.03161L39.2619 2H32.66L23.9892 2.03161C23.2275 2.03161 22.4658 2.03122 21.7041 2.03588C21.0624 2.03984 20.421 2.04715 19.7795 2.06447C18.3819 2.10214 16.9719 2.18431 15.5897 2.43223C14.1875 2.68357 12.8823 3.09398 11.6084 3.74089C10.3561 4.37685 9.21029 5.20752 8.21675 6.19866C7.22335 7.18957 6.39066 8.3324 5.75323 9.58133C5.10422 10.8529 4.69273 12.1555 4.44062 13.555C4.19239 14.9333 4.11014 16.3392 4.07231 17.733C4.05507 18.3728 4.04761 19.0128 4.04373 19.6528C4.03907 20.4127 4 21.3566 4 22.1164V30.6671V37.3397L4.03946 46.072C4.03946 46.8328 4.03915 47.5937 4.04373 48.3546C4.04761 48.9955 4.05507 49.6363 4.07239 50.277C4.11014 51.6731 4.19254 53.0815 4.44101 54.4623C4.69304 55.8629 5.10446 57.1666 5.75292 58.4391C6.39043 59.69 7.22328 60.8346 8.21675 61.827C9.21021 62.8194 10.3558 63.651 11.6078 64.2879C12.8825 64.9361 14.1883 65.3472 15.5913 65.5989C16.973 65.8469 18.3824 65.9292 19.7795 65.9668C20.421 65.9842 21.0625 65.9915 21.7042 65.9954C22.4659 66 23.2275 66 23.9892 66H32.7384H39.3566H48.0888C48.8491 66 49.6093 66 50.3695 65.9954C51.0099 65.9915 51.6501 65.9842 52.2904 65.9668C53.6853 65.9291 55.0925 65.8468 56.4722 65.5986C57.8716 65.3469 59.1742 64.9359 60.4457 64.2881C61.6956 63.6514 62.8392 62.8195 63.8307 61.827C64.8222 60.8347 65.6533 59.6904 66.2896 58.4396C66.9372 57.1665 67.3479 55.8622 67.5995 54.4606C67.8473 53.0804 67.9295 51.6726 67.9671 50.277C67.9845 49.6362 67.9918 48.9954 67.9956 48.3546C68 47.5937 68 46.8328 68 46.072C68 46.072 68 37.4939 68 37.3397V30.6601C68 30.5462 68 21.9322 68 21.9322C68 21.1724 68 20.4126 67.9956 19.6528Z" stroke="url(#paint1_linear_294_291)" stroke-width="8"/>
</g>
<path opacity="0.1" d="M4.53906 46.0693L4.5 37.3379V22.1162C4.5 21.7434 4.50916 21.3232 4.51953 20.8965C4.52983 20.4727 4.54158 20.0416 4.54395 19.6562C4.54782 19.0179 4.55516 18.381 4.57227 17.7461C4.60987 16.3607 4.69112 14.9845 4.93262 13.6436C5.17717 12.286 5.57432 11.031 6.19824 9.80859C6.81171 8.60662 7.61403 7.50663 8.57031 6.55273C9.5267 5.5987 10.6296 4.79865 11.835 4.18652C13.0599 3.56454 14.3175 3.16865 15.6777 2.9248C17.0229 2.68354 18.4035 2.6019 19.793 2.56445C20.4294 2.54727 21.0669 2.54008 21.707 2.53613C22.4669 2.53148 23.227 2.53125 23.9893 2.53125H23.9912L32.6621 2.5H39.2598L48.0869 2.53125H48.0889C48.8495 2.53125 49.6079 2.53149 50.3662 2.53613C51.0049 2.54008 51.6413 2.54728 52.2764 2.56445H52.2773C53.6632 2.6019 55.0402 2.68296 56.3818 2.92383C57.7403 3.16773 58.9965 3.56407 60.2197 4.18652C61.4224 4.79854 62.5232 5.59882 63.4775 6.55273C64.432 7.50657 65.2324 8.60648 65.8447 9.80859C66.467 11.0305 66.8635 12.2849 67.1074 13.6416C67.3487 14.9832 67.4294 16.3601 67.4668 17.7461V17.7471C67.484 18.3815 67.4923 19.0172 67.4961 19.6553C67.5004 20.4134 67.5 21.1726 67.5 21.9326V46.0723C67.5 46.8332 67.5004 47.5925 67.4961 48.3516C67.4923 48.9908 67.485 49.6279 67.4678 50.2637C67.4303 51.6509 67.3485 53.0291 67.1074 54.3721C66.8633 55.7318 66.4664 56.9887 65.8438 58.2129C65.2313 59.4167 64.431 60.5185 63.4766 61.4736C62.6414 62.3096 61.6946 63.0277 60.665 63.6045L60.2188 63.8428C58.9963 64.4656 57.7413 64.8623 56.3838 65.1064C55.0413 65.3479 53.6631 65.4293 52.2764 65.4668C51.6413 65.484 51.0048 65.4912 50.3662 65.4951C49.6078 65.4997 48.8492 65.5 48.0889 65.5H23.9893C23.2273 65.5 22.467 65.4997 21.707 65.4951C21.067 65.4912 20.4294 65.484 19.793 65.4668C18.4041 65.4293 17.0242 65.3478 15.6797 65.1064C14.3185 64.8622 13.0597 64.4651 11.834 63.8418C10.6292 63.2289 9.52649 62.4287 8.57031 61.4736C7.61391 60.5183 6.81183 59.4159 6.19824 58.2119C5.57483 56.9885 5.17711 55.7326 4.93262 54.374C4.69086 53.0306 4.60979 51.6515 4.57227 50.2637C4.55508 49.6279 4.54782 48.9908 4.54395 48.3516C4.53937 47.5926 4.53906 46.8335 4.53906 46.0723V46.0693Z" stroke="black"/>
</g>
</g>
<defs>
<filter id="filter0_d_294_291" x="0" y="0" width="72" height="72" filterUnits="userSpaceOnUse" color-interpolation-filters="sRGB">
<feFlood flood-opacity="0" result="BackgroundImageFix"/>
<feColorMatrix in="SourceAlpha" type="matrix" values="0 0 0 0 0 0 0 0 0 0 0 0 0 0 0 0 0 0 127 0" result="hardAlpha"/>
<feOffset dy="2"/>
<feGaussianBlur stdDeviation="2"/>
<feColorMatrix type="matrix" values="0 0 0 0 0 0 0 0 0 0 0 0 0 0 0 0 0 0 0.15 0"/>
<feBlend mode="normal" in2="BackgroundImageFix" result="effect1_dropShadow_294_291"/>
<feBlend mode="normal" in="SourceGraphic" in2="effect1_dropShadow_294_291" result="shape"/>
</filter>
<filter id="filter1_d_294_291" x="10.9297" y="9.7865" width="20.6449" height="22.6648" filterUnits="userSpaceOnUse" color-interpolation-filters="sRGB">
<feFlood flood-opacity="0" result="BackgroundImageFix"/>
<feColorMatrix in="SourceAlpha" type="matrix" values="0 0 0 0 0 0 0 0 0 0 0 0 0 0 0 0 0 0 127 0" result="hardAlpha"/>
<feOffset dy="2"/>
<feGaussianBlur stdDeviation="1"/>
<feColorMatrix type="matrix" values="0 0 0 0 0 0 0 0 0 0 0 0 0 0 0 0 0 0 0.25 0"/>
<feBlend mode="normal" in2="BackgroundImageFix" result="effect1_dropShadow_294_291"/>
<feBlend mode="normal" in="SourceGraphic" in2="effect1_dropShadow_294_291" result="shape"/>
</filter>
<filter id="filter2_dii_294_291" x="-3" y="-4" width="78" height="78" filterUnits="userSpaceOnUse" color-interpolation-filters="sRGB">
<feFlood flood-opacity="0" result="BackgroundImageFix"/>
<feColorMatrix in="SourceAlpha" type="matrix" values="0 0 0 0 0 0 0 0 0 0 0 0 0 0 0 0 0 0 127 0" result="hardAlpha"/>
<feOffset dy="1"/>
<feGaussianBlur stdDeviation="1.5"/>
<feColorMatrix type="matrix" values="0 0 0 0 0 0 0 0 0 0 0 0 0 0 0 0 0 0 0.6 0"/>
<feBlend mode="normal" in2="BackgroundImageFix" result="effect1_dropShadow_294_291"/>
<feBlend mode="normal" in="SourceGraphic" in2="effect1_dropShadow_294_291" result="shape"/>
<feColorMatrix in="SourceAlpha" type="matrix" values="0 0 0 0 0 0 0 0 0 0 0 0 0 0 0 0 0 0 127 0" result="hardAlpha"/>
<feOffset dy="-1"/>
<feGaussianBlur stdDeviation="0.5"/>
<feComposite in2="hardAlpha" operator="arithmetic" k2="-1" k3="1"/>
<feColorMatrix type="matrix" values="0 0 0 0 0 0 0 0 0 0 0 0 0 0 0 0 0 0 0.33 0"/>
<feBlend mode="normal" in2="shape" result="effect2_innerShadow_294_291"/>
<feColorMatrix in="SourceAlpha" type="matrix" values="0 0 0 0 0 0 0 0 0 0 0 0 0 0 0 0 0 0 127 0" result="hardAlpha"/>
<feOffset dy="1"/>
<feGaussianBlur stdDeviation="1"/>
<feComposite in2="hardAlpha" operator="arithmetic" k2="-1" k3="1"/>
<feColorMatrix type="matrix" values="0 0 0 0 1 0 0 0 0 1 0 0 0 0 1 0 0 0 0.44 0"/>
<feBlend mode="normal" in2="effect2_innerShadow_294_291" result="effect3_innerShadow_294_291"/>
</filter>
<linearGradient id="paint0_linear_294_291" x1="36" y1="2" x2="36" y2="66" gradientUnits="userSpaceOnUse">
<stop stop-color="#474752"/>
<stop offset="1" stop-color="#141415"/>
</linearGradient>
<linearGradient id="paint1_linear_294_291" x1="36" y1="2" x2="36" y2="66" gradientUnits="userSpaceOnUse">
<stop stop-color="#E6E6E6"/>
<stop offset="1" stop-color="#A3A3A3"/>
</linearGradient>
</defs>
</g>
</svg>
